<svg width="40" height="50" viewBox="0 0 40 50" fill="none" xmlns="http://www.w3.org/2000/svg">
<path d="M12.9 42.6C10.65 40.5 9.94995 36.2 10.9 33.05C12.55 35.05 14.8 35.65 17.15 36.05C20.75 36.55 24.3 36.35 27.65 34.7L28.85 34C29.15 34.9 29.25 35.85 29.1 36.8C28.85 39.05 27.7 40.8 25.9 42.15C25.2 42.7 24.4 43.15 23.65 43.65C21.35 45.25 20.75 47.05 21.65 49.7V50C20.5572 49.5145 19.6344 48.7136 19 47.7C18.3401 46.6524 17.9931 45.4381 18 44.2C18 43.6 18 42.95 17.9 42.35C17.7 40.85 17 40.2 15.65 40.15C15.022 40.1143 14.4024 40.3074 13.906 40.6935C13.4095 41.0796 13.0699 41.6326 12.95 42.25L12.9 42.6Z" fill="#2E405B"/>
<path d="M0 32.5C0 32.5 6.7 29.25 13.4 29.25L18.45 13.6C18.65 12.85 19.2 12.35 19.8 12.35C20.45 12.35 21 12.85 21.2 13.6L26.2 29.25C34.2 29.25 39.65 32.5 39.65 32.5L28.25 1.5C27.95 0.6 27.4 0 26.65 0H13C12.25 0 11.75 0.6 11.4 1.5L0 32.5Z" fill="#2E405B"/>
</svg>
