<svg width="49" height="50" viewBox="0 0 49 50" fill="none" xmlns="http://www.w3.org/2000/svg">
<g id="Mask group">
<mask id="mask0_110_2637" style="mask-type:alpha" maskUnits="userSpaceOnUse" x="0" y="0" width="49" height="50">
<g id="Vector">
<path d="M12.2239 49.992V49.2156C12.2293 42.6843 12.2293 36.1476 12.2346 29.6164C12.2454 20.0233 12.2615 10.4302 12.2723 0.831564C12.2723 0.0330577 12.2723 0.0330577 13.0625 0.0330577C23.8511 0.0275508 34.6451 0.0385647 45.4337 1.61392e-05C47.3312 -0.0054908 48.8149 1.39878 48.8095 3.46939C48.7558 17.9031 48.7773 32.3313 48.7773 46.765C48.7773 48.731 47.557 49.9865 45.6433 49.992C34.7365 49.9976 23.8296 49.9976 12.9227 49.9976C12.7292 49.992 12.5357 49.992 12.2239 49.992ZM30.1512 45.7682C28.5923 43.1084 27.0925 40.5476 25.5927 37.9869C26.0013 37.8382 26.3722 37.7226 26.727 37.5684C30.221 36.043 30.0168 31.7365 28.3772 29.9688C27.3021 28.8123 25.9421 28.2727 24.4531 28.1956C22.2062 28.0799 19.9485 28.124 17.6961 28.0689C17.1908 28.0579 17.0995 28.2506 17.0995 28.7187C17.1156 34.1871 17.1102 39.6555 17.1102 45.1239C17.1102 45.3111 17.1317 45.5094 17.1425 45.7132H20.2656V38.3063C20.8247 38.3063 21.3246 38.3394 21.8245 38.2953C22.2761 38.2512 22.5126 38.433 22.7168 38.835C23.8565 41.0102 25.0122 43.1689 26.1787 45.3222C26.2701 45.4929 26.4528 45.7352 26.5926 45.7407C27.7322 45.7847 28.8772 45.7682 30.1512 45.7682ZM34.3656 38.5101C35.2794 38.5101 36.1072 38.5321 36.935 38.5046C38.3864 38.455 39.8002 38.2292 41.1118 37.5188C44.192 35.8447 44.0683 30.7343 41.4021 29.1262C40.4667 28.5645 39.4615 28.2286 38.3918 28.1901C36.2362 28.113 34.0753 28.1295 31.9197 28.0744C31.3768 28.0579 31.194 28.2011 31.194 28.7903C31.2155 34.2202 31.2101 39.6445 31.2101 45.0743C31.2101 45.2836 31.2263 45.4984 31.237 45.7297H34.3548C34.3655 43.3231 34.3656 40.9607 34.3656 38.5101ZM9.04696 0.0165369V49.9645C8.85344 49.9755 8.6653 49.9976 8.48253 49.9976C6.69249 49.9976 4.89708 50.0031 3.10704 49.9976C1.23099 49.9976 0 48.7254 0 46.7925C0.0053755 32.2817 0.0107511 17.7709 0.0215021 3.25462C0.0215021 1.31618 1.28474 0.0275509 3.17154 0.022044C4.92395 0.0165371 6.68174 0.0165369 8.43415 0.0165369H9.04696Z" fill="#2E405B"/>
<path d="M20.2656 35.5804V30.8058C21.8299 30.894 23.3834 30.5911 24.8939 31.1197C25.8454 31.4557 26.3292 32.1605 26.3453 33.1022C26.3614 34.1816 25.9153 34.9085 24.9423 35.3105C24.6413 35.4317 24.3187 35.5583 24.0016 35.5693C22.776 35.5969 21.5557 35.5804 20.2656 35.5804ZM34.3924 35.8777V30.7618C35.7417 30.8389 37.0694 30.8279 38.3649 31.0206C39.5744 31.1968 40.198 32.0339 40.2195 33.1518C40.2463 34.3798 39.698 35.272 38.4724 35.5033C37.1554 35.7456 35.7901 35.7566 34.3924 35.8777Z" fill="#2E405B"/>
</g>
</mask>
<g mask="url(#mask0_110_2637)">
<path id="Rectangle 25" d="M0 12C0 5.37258 5.37258 0 12 0H37C43.6274 0 49 5.37258 49 12V38C49 44.6274 43.6274 50 37 50H12C5.37258 50 0 44.6274 0 38V12Z" fill="#2E405B"/>
</g>
</g>
</svg>
