<svg width="50" height="50" viewBox="0 0 50 50" fill="none" xmlns="http://www.w3.org/2000/svg">
<g id="Mask group">
<mask id="mask0_110_2640" style="mask-type:alpha" maskUnits="userSpaceOnUse" x="0" y="0" width="50" height="50">
<path id="Vector" d="M50 45C50 47.7614 47.7614 50 45 50H5C2.23858 50 0 47.7614 0 45V5C0 2.23858 2.23858 0 5 0H45C47.7614 0 50 2.23858 50 5V45ZM28.9961 32.4332V39.6576C28.9961 41.1576 30.2122 42.3737 31.7123 42.3737H41.08C42.5801 42.3737 43.7962 41.1577 43.7962 39.6576V32.4332C43.7962 30.9331 42.5801 29.717 41.08 29.717H35.8885L30.3633 20.3065C31.5597 20.0225 32.4499 18.9479 32.4499 17.6646V10.3425C32.4499 8.84238 31.2339 7.62627 29.7338 7.62627H20.366C18.866 7.62627 17.6499 8.84238 17.6499 10.3425V17.6646C17.6499 18.9165 18.4973 19.97 19.6495 20.2845L14.1114 29.7171H8.91982C7.41982 29.7171 6.20371 30.9331 6.20371 32.4332V39.6576C6.20371 41.1576 7.41973 42.3737 8.91982 42.3737H18.2876C19.7876 42.3737 21.0037 41.1577 21.0037 39.6576V32.4332C21.0037 30.7929 20.1615 29.717 17.5087 29.717L22.9904 20.3808H27.2048L32.6864 29.717C30.0145 29.5332 28.9259 31.2881 28.9961 32.4332Z" fill="#2E405B"/>
</mask>
<g mask="url(#mask0_110_2640)">
<path id="Rectangle 26" d="M0 12C0 5.37258 5.37258 0 12 0H38C44.6274 0 50 5.37258 50 12V38C50 44.6274 44.6274 50 38 50H12C5.37258 50 0 44.6274 0 38V12Z" fill="#2E405B"/>
</g>
</g>
</svg>
