<svg width="32" height="49" viewBox="0 0 32 49" fill="none" xmlns="http://www.w3.org/2000/svg">
<path fill-rule="evenodd" clip-rule="evenodd" d="M7.18748 1.03336e-05H14.3523V14.4741H7.18748C1.67211 14.4835 -1.78513 8.45855 0.964618 3.62921C2.24495 1.38012 4.61919 -0.0043637 7.18748 1.03336e-05ZM16.5568 15.5874V1.03336e-05H24.2726C30.2122 -0.000197954 33.9245 6.4944 30.9549 11.6903C29.5766 14.1019 27.0294 15.5874 24.2726 15.5874H16.5568ZM30.8862 24.4946C30.8955 30.0656 24.9308 33.5578 20.1495 30.7805C17.9231 29.487 16.5525 27.0888 16.5568 24.4946C16.5661 18.9235 22.5426 15.4518 27.3144 18.2455C29.5214 19.5378 30.8819 21.9179 30.8862 24.4946ZM14.3523 17.2576H7.18748C1.67211 17.267 -1.76472 23.3038 1.00091 28.1238C2.28021 30.3531 4.63652 31.7271 7.18748 31.7315H14.3523V17.2576ZM14.3523 34.5151V41.7522C14.3523 47.3233 8.38162 50.8052 3.60528 48.0196C-1.17126 45.2341 -1.17126 38.2703 3.60528 35.4846C4.69446 34.8496 5.92984 34.5151 7.18748 34.5151H14.3523Z" fill="#2E405B"/>
</svg>
