<svg width="50" height="50" viewBox="0 0 50 50" fill="none" xmlns="http://www.w3.org/2000/svg">
<mask id="mask0_110_2639" style="mask-type:alpha" maskUnits="userSpaceOnUse" x="0" y="0" width="50" height="50">
<path d="M50 7.14286C50 3.20312 46.7969 0 42.8571 0H7.14286C3.20312 0 0 3.20312 0 7.14286V42.8571C0 46.7969 3.20312 50 7.14286 50H42.8571C46.7969 50 50 46.7969 50 42.8571V7.14286ZM20.1897 46.0826C16.4286 46.0826 14.2522 44.1406 13.1362 41.7857L16.9643 39.4754C17.7009 40.7813 18.3705 41.8862 19.9888 41.8862C21.529 41.8862 22.5112 41.2835 22.5112 38.9286V22.9576H27.2098V38.9955C27.2098 43.8616 24.3527 46.0826 20.1897 46.0826ZM29.7656 41.2835L33.5938 39.0737C34.5982 40.7143 35.9152 41.9308 38.2254 41.9308C40.1674 41.9308 41.4174 40.9598 41.4174 39.6094C41.4174 38.0022 40.1451 37.433 37.9911 36.4844L36.8192 35.9821C33.4263 34.5424 31.183 32.7232 31.183 28.8951C31.183 25.3683 33.8728 22.6897 38.058 22.6897C41.0491 22.6897 43.192 23.7277 44.7321 26.4509L41.0714 28.7946C40.2679 27.3549 39.3973 26.7857 38.0469 26.7857C36.6741 26.7857 35.8036 27.6562 35.8036 28.7946C35.8036 30.2009 36.6741 30.7701 38.6942 31.6518L39.8661 32.154C43.8616 33.8616 46.1049 35.6138 46.1049 39.5424C46.1049 43.7612 42.779 46.0826 38.3259 46.0826C33.9621 46.0826 31.1384 44.0067 29.7656 41.2835Z" fill="#2E405B"/>
</mask>
<g mask="url(#mask0_110_2639)">
<path d="M1 12C1 5.37258 6.37258 0 13 0H38C44.6274 0 50 5.37258 50 12V38C50 44.6274 44.6274 50 38 50H13C6.37258 50 1 44.6274 1 38V12Z" fill="#2E405B"/>
</g>
</svg>
