<svg width="42" height="50" viewBox="0 0 42 50" fill="none" xmlns="http://www.w3.org/2000/svg">
<path id="Vector" d="M41 3.33333L26.8333 0H26.3333L0.5 10C0.166667 10.1667 0 10.5 0 10.8333V37.5C0 37.8333 0.166667 38 0.333333 38.1667C0.5 38.3333 0.833333 38.3333 1.16667 38.1667L7.83333 34.8333C8.16667 34.6667 8.33333 34.3333 8.33333 34.1667V13.1667L28.3333 7V43.3333L1 40C0.5 40 0.166666 40.1667 0.166667 40.6667C-1.39698e-07 41.1667 0.333333 41.5 0.666666 41.6667L27.3333 50H27.8333L41.1667 45C41.5 44.8333 41.6667 44.5 41.6667 44.1667V4.16667C41.6667 3.83333 41.3333 3.5 41 3.33333Z" fill="#2E405B"/>
</svg>
