<svg width="50" height="50" viewBox="0 0 50 50" fill="none" xmlns="http://www.w3.org/2000/svg">
<g id="Mask group">
<mask id="mask0_111_2331" style="mask-type:alpha" maskUnits="userSpaceOnUse" x="0" y="0" width="50" height="50">
<path id="Vector" fill-rule="evenodd" clip-rule="evenodd" d="M9.09091 0C6.67985 0 4.36754 0.95779 2.66267 2.66267C0.95779 4.36754 0 6.67985 0 9.09091V40.9091C0 43.3202 0.95779 45.6325 2.66267 47.3373C4.36754 49.0422 6.67985 50 9.09091 50H40.9091C43.3202 50 45.6325 49.0422 47.3373 47.3373C49.0422 45.6325 50 43.3202 50 40.9091V9.09091C50 6.67985 49.0422 4.36754 47.3373 2.66267C45.6325 0.95779 43.3202 0 40.9091 0H9.09091ZM10.2273 13.6364H18.1818C20.2915 13.6364 22.3148 14.4744 23.8065 15.9662C25.2983 17.458 26.1364 19.4812 26.1364 21.5909C26.1364 23.7006 25.2983 25.7239 23.8065 27.2156C22.3148 28.7074 20.2915 29.5455 18.1818 29.5455H14.7727V36.3636H10.2273V13.6364ZM14.7727 25H18.1818C19.086 25 19.9531 24.6408 20.5924 24.0015C21.2317 23.3622 21.5909 22.4951 21.5909 21.5909C21.5909 20.6868 21.2317 19.8196 20.5924 19.1803C19.9531 18.541 19.086 18.1818 18.1818 18.1818H14.7727V25ZM38.4659 24.1682C36.5182 23.7295 34.4545 23.3841 32.9591 23.4955C32.2023 23.55 31.2364 23.7864 32.2091 24.5682C33.0114 25.2091 33.9591 25.6114 34.9091 26.0114C35.8864 26.425 36.8682 26.8409 37.7 27.525C38.8614 28.4795 39.7727 29.8705 39.7727 31.8182C39.7727 33.7614 38.8545 35.25 37.3909 36.1364C36.0977 36.9182 34.5364 37.1409 33.1841 37.175C30.9977 37.2295 28.5886 36.7932 26.7932 36.3523V31.6523C28.4477 32.125 31.0159 32.6818 33.0705 32.6295C34.1386 32.6045 34.7682 32.4091 35.0545 32.2364C35.5091 31.9636 35.0955 31.2682 34.8159 31.0386C34.0159 30.3795 33.0545 29.975 32.0886 29.5682C31.1341 29.1659 30.175 28.7614 29.3659 28.1136C28.2068 27.1818 27.2727 25.8068 27.2727 23.8636C27.2727 22.2841 27.9318 20.9545 29.1364 20.0795C30.2091 19.3068 31.5091 19.0432 32.6205 18.9614C34.4955 18.8227 36.6591 19.1477 38.4659 19.5182V24.1682Z" fill="black"/>
</mask>
<g mask="url(#mask0_111_2331)">
<path id="Rectangle 29" d="M0 12C0 5.37258 5.37258 0 12 0H38C44.6274 0 50 5.37258 50 12V38C50 44.6274 44.6274 50 38 50H12C5.37258 50 0 44.6274 0 38V12Z" fill="#2E405B"/>
</g>
</g>
</svg>
