<svg xmlns="http://www.w3.org/2000/svg" width="50" height="44" viewBox="0 0 50 44" fill="none">
  <path d="M9.16016 14.1785C9.6875 14.0027 10.2148 13.8367 10.7422 13.6804C10.6543 13.3191 10.5762 12.9578 10.498 12.5964C9.29688 6.77612 10.0879 2.09839 12.7539 0.55542C15.3223 -0.91919 19.5117 0.614013 23.75 4.30542C24.1699 4.66675 24.5801 5.04761 24.9707 5.42847C25.2344 5.17456 25.5078 4.92065 25.7812 4.67651C30.2246 0.731201 34.6777 -0.928955 37.3437 0.623779C39.9023 2.10815 40.6641 6.51245 39.5898 12.0203C39.4824 12.5671 39.3652 13.1042 39.2285 13.6511C39.8535 13.8269 40.4688 14.0222 41.0449 14.2273C46.2598 16.0339 50 18.8855 50 21.8347C50 24.8816 46.0156 27.9382 40.5957 29.7937C40.1562 29.9402 39.7168 30.0867 39.2676 30.2136C39.4141 30.7996 39.541 31.3757 39.6582 31.9714C40.6836 37.3914 39.8828 41.6882 37.3242 43.1628C34.6875 44.6863 30.2539 43.1238 25.9375 39.3445C25.5957 39.0417 25.2539 38.7293 24.9121 38.3972C24.4824 38.8171 24.0332 39.2175 23.584 39.6082C19.4043 43.2019 15.2734 44.657 12.7246 43.1824C10.0879 41.6589 9.22852 37.0398 10.3418 31.4148C10.4297 30.9851 10.5273 30.5457 10.6348 30.0964C10.3223 30.0085 10.0195 29.9109 9.7168 29.8132C4.08203 27.948 0 24.9304 0 21.8347C0 18.8757 3.84766 16.0046 9.16016 14.1785ZM22.373 5.88745C18.7402 2.72339 15.3516 1.48315 13.8086 2.37183C12.1582 3.31909 11.5234 7.14722 12.5586 12.1765C12.627 12.5085 12.6953 12.8308 12.7832 13.1531C14.9512 12.6648 17.1484 12.3132 19.3555 12.1179C20.625 10.3015 22.0117 8.56323 23.5156 6.93237C23.1348 6.57104 22.7637 6.22925 22.373 5.88745ZM33.6719 26.9031C33.1738 27.7527 32.666 28.6023 32.1289 29.4324C33.6523 29.2664 35.166 29.0222 36.6602 28.7C36.2305 27.2937 35.6934 25.8386 35.0684 24.3542C34.6191 25.2136 34.1602 26.0632 33.6719 26.9031ZM36.6309 15.155C35.2246 14.8425 33.7305 14.5886 32.1777 14.3933C32.6953 15.2039 33.2031 16.0339 33.6816 16.8738C34.1602 17.7039 34.6289 18.5535 35.0684 19.4128C35.6836 17.9578 36.2012 16.532 36.6309 15.155ZM33.9551 21.8835C33.3105 20.5359 32.6074 19.2175 31.8652 17.9187C31.123 16.6199 30.3223 15.3601 29.4824 14.1199C28.0176 14.0125 26.5234 13.9539 25 13.9539C23.4766 13.9539 21.9727 14.0125 20.5176 14.1199C19.6875 15.3503 18.8965 16.6101 18.1445 17.8992C17.3926 19.1882 16.6895 20.5066 16.0254 21.8445C16.6797 23.1921 17.3828 24.5203 18.1348 25.8289C18.877 27.1277 19.668 28.3875 20.498 29.6375C21.9531 29.7449 23.4668 29.7937 25 29.7937C26.5332 29.7937 28.0176 29.7449 29.4531 29.657C30.3027 28.4167 31.1035 27.1472 31.8555 25.8484C32.6074 24.5496 33.3008 23.2312 33.9551 21.8835ZM16.3184 26.8835C15.8203 26.0242 15.3516 25.155 14.8926 24.2761C14.2676 25.6921 13.7207 27.1277 13.2422 28.6023C14.7559 28.9441 16.2891 29.2078 17.832 29.3835C17.3047 28.5632 16.8066 27.7234 16.3184 26.8835ZM14.9121 19.4128C15.3711 18.5535 15.8398 17.6941 16.3281 16.8542C16.8066 16.0242 17.3047 15.2039 17.8223 14.3933C16.25 14.5886 14.7461 14.8523 13.3398 15.1746C13.7891 16.6199 14.3164 18.0261 14.9121 19.4128ZM24.9805 8.42651C23.9551 9.5398 22.9883 10.7117 22.0898 11.9226C24.0234 11.8347 25.9668 11.8347 27.9004 11.9226C26.9434 10.6628 25.957 9.49097 24.9805 8.42651ZM36.3086 2.44019C34.668 1.48315 31.0254 2.85034 27.1875 6.24878C26.9434 6.46362 26.6992 6.698 26.4453 6.93237C27.959 8.56323 29.3555 10.3015 30.6348 12.1179C32.8418 12.3132 35.0293 12.655 37.1973 13.1335C37.3242 12.6355 37.4316 12.1277 37.5391 11.6199C38.457 6.89331 37.8516 3.32886 36.3086 2.44019ZM38.7012 28.1824C39.1113 28.0652 39.5117 27.9382 39.9121 27.8015C41.9922 27.1472 44.3555 26.1121 46.0645 24.7546C47.0508 24.071 47.7148 23.0164 47.9004 21.8347C47.9004 20.0476 44.8145 17.7625 40.3613 16.2097C39.8047 16.0144 39.2383 15.8386 38.6719 15.6726C38.0078 17.7917 37.207 19.8718 36.2793 21.8835C37.2168 23.9246 38.0273 26.0339 38.7012 28.1824ZM27.3145 37.7527C28.9258 39.2273 30.791 40.3992 32.8223 41.2C33.9062 41.7175 35.1562 41.7664 36.2695 41.3269C37.8223 40.4285 38.4668 36.9812 37.5879 32.3425C37.4805 31.7957 37.3633 31.2488 37.2266 30.7117C35.0391 31.1804 32.832 31.5027 30.5957 31.6687C29.3066 33.4949 27.8906 35.2429 26.377 36.8835C26.6895 37.1863 27.002 37.4793 27.3145 37.7527ZM24.9219 35.3796C25.918 34.3054 26.9141 33.114 27.8809 31.8347C26.9434 31.8738 25.9766 31.8933 25 31.8933C23.9941 31.8933 23.0078 31.8738 22.0312 31.825C22.9297 33.0652 23.8965 34.2468 24.9219 35.3796ZM12.1582 38.3093C12.2461 39.5007 12.832 40.614 13.7695 41.366C15.3223 42.2644 18.6328 41.0925 22.207 38.0261C22.6172 37.6746 23.0273 37.2937 23.4473 36.9031C21.9531 35.2527 20.5762 33.5046 19.3262 31.6687C17.0898 31.4832 14.8633 31.1414 12.666 30.6433C12.5684 31.0437 12.4805 31.4441 12.4023 31.8347C11.9238 33.9441 11.8457 36.1414 12.1582 38.3093ZM10.3809 27.8113C10.6543 27.8992 10.9277 27.9871 11.2109 28.0652C11.8945 25.9363 12.7344 23.8562 13.7012 21.8347C12.7637 19.8425 11.9727 17.7917 11.3086 15.6921C10.8008 15.8386 10.3125 15.9949 9.84375 16.1511C5.29297 17.7136 2.09961 20.0378 2.09961 21.8152C2.09961 23.7292 5.50781 26.2 10.3809 27.8113ZM25 26.3464C22.5293 26.3464 20.5273 24.3445 20.5273 21.8738C20.5273 19.4031 22.5293 17.4011 25 17.4011C27.4707 17.4011 29.4727 19.4031 29.4727 21.8738C29.4727 24.3445 27.4707 26.3464 25 26.3464Z" fill="#2E405B"/>
</svg>