<svg xmlns="http://www.w3.org/2000/svg" width="50" height="38" viewBox="0 0 50 38" fill="none">
  <path d="M43.0539 21.704C41.3096 21.7131 39.7935 22.1361 38.5242 22.7614C38.0583 21.8326 37.5925 21.0051 37.5105 20.3981C37.419 19.6902 37.3095 19.2579 37.419 18.4119C37.5287 17.5659 38.0219 16.3612 38.0126 16.2693C38.0036 16.1774 37.903 15.7452 36.8984 15.7361C35.8939 15.7268 35.0263 15.9291 34.9258 16.1958C34.8253 16.4624 34.6336 17.0694 34.5057 17.6945C34.3322 18.6142 32.4966 21.8969 31.4465 23.6165C31.1084 22.9454 30.8162 22.3567 30.7522 21.8878C30.6609 21.1798 30.5512 20.7476 30.6609 19.9016C30.7706 19.0556 31.2637 17.8511 31.2545 17.759C31.2453 17.6671 31.1449 17.2348 30.1403 17.2258C29.1356 17.2165 28.268 17.4188 28.1677 17.6854C28.0672 17.9522 27.9575 18.5774 27.7476 19.1844C27.5374 19.7913 25.0991 25.272 24.4598 26.6879C24.2015 27.261 23.9305 27.8282 23.647 28.3891C23.647 28.3891 23.6378 28.4168 23.6104 28.4627C23.5213 28.6386 23.4301 28.8133 23.3366 28.9869V28.9959C23.1995 29.2444 23.0534 29.4741 22.9803 29.4741C22.9255 29.4741 22.825 28.8121 22.9985 27.9109C23.3638 26.0075 24.2314 23.0466 24.2224 22.9454C24.2224 22.8902 24.3867 22.3753 23.6562 22.1085C22.9437 21.8419 22.6881 22.2832 22.6241 22.2832C22.5602 22.2832 22.5144 22.4396 22.5144 22.4396C22.5144 22.4396 23.3092 19.1108 20.9985 19.1108C19.5556 19.1108 17.5646 20.7016 16.5783 22.1361C15.457 22.7504 14.3368 23.3666 13.2174 23.9844C12.6788 24.2879 12.1216 24.5914 11.601 24.8764C11.5644 24.8397 11.528 24.7936 11.4914 24.7569C8.69674 21.75 3.52778 19.6257 3.74694 15.589C3.8292 14.1177 4.33137 10.2555 13.6742 5.5658C21.3637 1.74955 27.4828 2.80695 28.5422 5.15188C30.0581 8.49918 25.2636 14.7154 17.318 15.6164C14.286 15.9568 12.6968 14.7797 12.2952 14.3383C11.875 13.8784 11.811 13.8508 11.6557 13.9429C11.4001 14.081 11.5644 14.4947 11.6557 14.7337C11.8933 15.3588 12.8704 16.4624 14.5234 17.0051C15.9846 17.4831 19.5372 17.7499 23.8387 16.0763C28.6516 14.2003 32.4144 8.98646 31.3094 4.61864C30.2042 0.186336 22.8981 -1.27572 15.9846 1.19778C11.875 2.6693 7.41821 4.98642 4.21268 8.00262C0.404311 11.5887 -0.198526 14.7061 0.0480535 16.012C0.934094 20.6464 7.28131 23.6626 9.82015 25.8971C9.69226 25.9707 9.57338 26.0351 9.4731 26.0904C8.20358 26.7248 3.36326 29.2718 2.15779 31.9662C0.787987 35.0191 2.37714 37.2078 3.42731 37.5018C6.68768 38.4123 10.0393 36.7755 11.8384 34.0719C13.6375 31.3685 13.4184 27.8557 12.5874 26.2465C12.5782 26.2282 12.5692 26.2097 12.5507 26.1913C12.8796 25.9983 13.2174 25.7959 13.5463 25.6029C14.1506 25.2431 14.7627 24.8966 15.382 24.5636C15.0714 25.4189 14.843 26.4396 14.7335 27.9109C14.5964 29.6398 15.2995 31.8834 16.222 32.766C16.6331 33.1525 17.1171 33.1616 17.4277 33.1616C18.5053 33.1616 18.9894 32.2604 19.5282 31.1937C20.1857 29.8881 20.7793 28.3708 20.7793 28.3708C20.7793 28.3708 20.0396 32.472 22.0488 32.472C22.7794 32.472 23.5191 31.5156 23.8479 31.0283V31.0374C23.8479 31.0374 23.8662 31.0098 23.9028 30.9455C23.9758 30.826 24.0215 30.7522 24.0215 30.7522V30.7341C24.3137 30.219 24.9714 29.0512 25.9485 27.1109C27.2088 24.6098 28.4235 21.4833 28.4235 21.4833C28.4235 21.4833 28.5332 22.2465 28.9074 23.5155C29.1268 24.2603 29.5831 25.0787 29.9486 25.8695C29.6564 26.2834 29.4736 26.5132 29.4736 26.5132L29.4828 26.5224C29.2453 26.835 28.9897 27.1752 28.7065 27.5065C27.711 28.7017 26.5239 30.0721 26.3594 30.4673C26.1674 30.9362 26.2133 31.2766 26.5787 31.5525C26.8435 31.7548 27.3183 31.7822 27.8024 31.7548C28.6975 31.6903 29.3275 31.4696 29.638 31.3318C30.1221 31.1571 30.6883 30.8903 31.2179 30.4949C32.1952 29.7684 32.7887 28.7293 32.734 27.3594C32.7066 26.6053 32.46 25.8512 32.1586 25.143C32.2501 25.0144 32.3321 24.8857 32.4236 24.7569C33.9669 22.4855 35.1634 19.9935 35.1634 19.9935C35.1634 19.9935 35.2731 20.7566 35.6473 22.0258C35.8301 22.6695 36.2045 23.3684 36.5332 24.0487C35.0811 25.2351 34.1861 26.6143 33.8664 27.5155C33.2912 29.1892 33.7385 29.9431 34.588 30.1178C34.9714 30.2006 35.5194 30.0166 35.9213 29.8419C36.4327 29.6765 37.0355 29.3915 37.611 28.9683C38.5883 28.242 39.5287 27.2304 39.4739 25.8604C39.4465 25.2351 39.2822 24.6188 39.0538 24.0211C40.2867 23.5064 41.8759 23.2213 43.9031 23.4603C48.2505 23.9752 49.1089 26.7062 48.9444 27.8559C48.7801 29.0052 47.8668 29.6305 47.5656 29.8236C47.264 30.0168 47.1637 30.0811 47.1911 30.219C47.2275 30.4213 47.3737 30.4122 47.6294 30.3754C47.9857 30.3111 49.9127 29.4465 49.9948 27.3315C50.1319 24.6281 47.5746 21.6764 43.0539 21.704ZM9.51874 33.0881C8.07569 34.6696 6.06663 35.2673 5.199 34.7617C4.26752 34.219 4.63278 31.8834 6.40447 30.2099C7.48206 29.1892 8.87027 28.2418 9.79273 27.6627C10.0027 27.5339 10.3133 27.3501 10.6878 27.1201C10.7516 27.0833 10.7883 27.0649 10.7883 27.0649L11.0074 26.9269C11.6557 29.3178 11.0348 31.4237 9.51874 33.0881ZM20.0214 25.8971C19.519 27.1294 18.4688 30.2835 17.8296 30.1087C17.2816 29.9616 16.9435 27.5708 17.7199 25.2075C18.1126 24.0211 18.9436 22.605 19.4277 22.0534C20.2131 21.1706 21.0807 20.8762 21.2907 21.2351C21.5557 21.704 20.3318 25.1247 20.0214 25.8971ZM28.6883 30.0719C28.4781 30.1823 28.2774 30.2559 28.1859 30.2006C28.1221 30.1638 28.2774 30.0167 28.2774 30.0167C28.2774 30.0167 29.3642 28.8398 29.7933 28.3063C30.04 27.9938 30.3321 27.626 30.6427 27.212V27.3315C30.6427 28.7386 29.2909 29.6857 28.6881 30.0719M35.3731 28.5363C35.2178 28.4258 35.2452 28.058 35.7658 26.9086C35.9668 26.4579 36.4415 25.704 37.2545 24.9776C37.3458 25.2718 37.4098 25.5569 37.4006 25.8235C37.3914 27.5984 36.1313 28.2604 35.3731 28.5363Z" fill="#2E405B"/>
</svg>