<svg xmlns="http://www.w3.org/2000/svg" width="56" height="50" viewBox="0 0 56 50" fill="none">
  <path d="M2.1 14.569L0 17.3276H10.2375L11.025 2.75862L2.1 14.569ZM43.8375 1.55172L29.3125 0L44.7125 16.4655L43.8375 1.55172ZM11.725 20.7759L10.4125 18.3621H0.0875L25.55 47.5862L11.725 20.7759ZM11.9 17.3276H44.1L34.825 7.41379L28 0.0862068L11.9 17.3276ZM45.5875 18.3621L30.45 47.5862L55.9125 18.3621H45.5875ZM46.025 4.13793L44.975 2.75862L45.0625 4.65517L45.7625 17.3276H56L46.025 4.13793ZM11.8125 6.89655L11.2875 16.3793L26.6875 0L12.1625 1.55172L11.8125 6.89655ZM44.45 18.3621H11.55L16.3625 27.5862L28 50L44.45 18.3621Z" fill="#2E405B"/>
</svg>