<svg width="50" height="30" viewBox="0 0 50 30" fill="none" xmlns="http://www.w3.org/2000/svg">
<path fill-rule="evenodd" clip-rule="evenodd" d="M25.0005 0C18.3332 0 14.1673 3.31354 12.4998 9.94063C15.0001 6.62708 17.9168 5.38475 21.25 6.21265C23.1517 6.68489 24.5116 8.05655 26.0155 9.57518C28.4669 12.0481 31.3043 14.91 37.5002 14.91C44.1665 14.91 48.3334 11.5964 50 4.97031C47.5006 8.28386 44.5839 9.52619 41.2508 8.69731C39.3481 8.22507 37.9882 6.85341 36.4842 5.33576C34.0329 2.86089 31.1965 0 25.0005 0ZM12.4998 14.91C5.83348 14.91 1.66657 18.2235 0 24.8506C2.50034 21.537 5.41708 20.2947 8.74924 21.1226C10.6519 21.5949 12.0118 22.9665 13.5158 24.4851C15.9671 26.958 18.8035 29.8199 25.0005 29.8199C31.6668 29.8199 35.8337 26.5074 37.5002 19.8803C34.9999 23.1938 32.0832 24.4361 28.75 23.6083C26.8483 23.135 25.4884 21.7634 23.9845 20.2457C21.5331 17.7728 18.6957 14.91 12.4998 14.91Z" fill="#2E405B"/>
</svg>
