<svg width="50" height="50" viewBox="0 0 50 50" fill="none" xmlns="http://www.w3.org/2000/svg">
<g id="Frame 24">
<g clip-path="url(#clip0_128_2331)">
<g id="Vector">
<path d="M0 0H50V50H0V0Z" fill="#2E405B"/>
<path d="M39.2592 30.5653C39.191 29.8778 38.8984 29.3438 38.3814 28.9631C37.8643 28.5824 37.1626 28.392 36.2763 28.392C35.674 28.392 35.1655 28.4773 34.7507 28.6477C34.3359 28.8125 34.0178 29.0426 33.7962 29.3381C33.5803 29.6335 33.4723 29.9688 33.4723 30.3438C33.4609 30.6562 33.5263 30.929 33.6683 31.1619C33.8161 31.3949 34.0178 31.5966 34.2734 31.767C34.5291 31.9318 34.8246 32.0767 35.1598 32.2017C35.495 32.321 35.853 32.4233 36.2337 32.5085L37.8018 32.8835C38.5632 33.054 39.2621 33.2812 39.8984 33.5653C40.5348 33.8494 41.0859 34.1989 41.5518 34.6136C42.0178 35.0284 42.3785 35.517 42.6342 36.0795C42.8956 36.642 43.0291 37.2869 43.0348 38.0142C43.0291 39.0824 42.7564 40.0085 42.2166 40.7926C41.6825 41.571 40.9098 42.1761 39.8984 42.608C38.8928 43.0341 37.6797 43.2472 36.2592 43.2472C34.8501 43.2472 33.6229 43.0313 32.5774 42.5994C31.5376 42.1676 30.7251 41.5284 30.1399 40.6818C29.5604 39.8295 29.2564 38.7756 29.228 37.5199H32.799C32.8388 38.1051 33.0064 38.5937 33.3018 38.9858C33.603 39.3722 34.0036 39.6648 34.5036 39.8636C35.0092 40.0568 35.5803 40.1534 36.2166 40.1534C36.8416 40.1534 37.3842 40.0625 37.8445 39.8807C38.3104 39.6989 38.6712 39.446 38.9268 39.1222C39.1825 38.7983 39.3104 38.4261 39.3104 38.0057C39.3104 37.6136 39.1939 37.2841 38.9609 37.017C38.7337 36.75 38.3984 36.5227 37.9553 36.3352C37.5178 36.1477 36.9808 35.9773 36.3445 35.8239L34.4439 35.3466C32.9723 34.9886 31.8104 34.429 30.9581 33.6676C30.1058 32.9062 29.6825 31.8807 29.6882 30.5909C29.6825 29.5341 29.9638 28.6108 30.532 27.821C31.1058 27.0313 31.8928 26.4148 32.8928 25.9716C33.8928 25.5284 35.0291 25.3068 36.3018 25.3068C37.5973 25.3068 38.728 25.5284 39.6939 25.9716C40.6655 26.4148 41.4212 27.0313 41.9609 27.821C42.5007 28.6108 42.7791 29.5256 42.7962 30.5653H39.2592Z" fill="white"/>
<path d="M13.0945 28.5881V25.5455H27.4297V28.5881H22.0859V43H18.4382V28.5881H13.0945Z" fill="white"/>
</g>
</g>
</g>
<defs>
<clipPath id="clip0_128_2331">
<rect width="50" height="50" rx="12" fill="white"/>
</clipPath>
</defs>
</svg>
