<svg width="50" height="50" viewBox="0 0 50 50" fill="none" xmlns="http://www.w3.org/2000/svg">
<path id="Vector" d="M39.7461 22.8809C38.5693 24.7559 36.7334 26.1279 34.5996 26.7236C34.5459 26.7383 34.4873 26.7578 34.4336 26.7725C34.0967 26.8701 33.75 26.9238 33.3984 26.9287C31.875 26.9287 31.0107 25.8984 31.4746 24.6289C31.8994 23.6279 32.7441 22.8662 33.7842 22.5488C35.4102 22.0605 36.5527 20.6055 36.6406 18.9111C36.6406 16.7188 34.5068 14.9414 31.8799 14.9414C29.248 14.9414 27.1143 16.7188 27.1143 18.9111V31.084C27.0605 33.9941 25.4395 36.6455 22.8809 38.0273C21.4307 38.8525 19.7852 39.2871 18.1152 39.2822C13.1543 39.2822 9.12109 35.6006 9.12109 31.0791C9.12598 29.6777 9.5166 28.3057 10.249 27.1094C11.4307 25.2246 13.2764 23.8477 15.4248 23.2568H15.4297C15.8008 23.1396 16.1865 23.0811 16.5723 23.0762C18.1055 23.0762 18.9697 24.1113 18.5059 25.3906C18.0908 26.3232 17.3145 27.0508 16.3525 27.3975C16.2354 27.4365 16.1182 27.4805 16.0059 27.5293C14.4824 28.0615 13.4326 29.4678 13.3545 31.084C13.3545 33.2764 15.4834 35.0537 18.1152 35.0537C20.7471 35.0537 22.8809 33.2764 22.8809 31.084V18.916C22.9346 16.0059 24.5557 13.3545 27.1143 11.9727C28.5645 11.1475 30.2051 10.7129 31.875 10.7178C36.8359 10.7178 40.8691 14.3945 40.8691 18.9209C40.8691 20.3174 40.4785 21.6895 39.7461 22.8809ZM25 0C11.1914 0 0 11.1914 0 25C0 38.8086 11.1914 50 25 50C38.8086 50 50 38.8135 50 25C50 11.1865 38.8135 0 25 0Z" fill="#2E405B"/>
</svg>
