<svg width="42" height="51" viewBox="0 0 42 51" fill="none" xmlns="http://www.w3.org/2000/svg">
<path id="Vector" d="M30.9905 0.367512L31.0082 0.385888L41.6546 11.571L41.6709 11.5889L42 11.9345V47.2095C42 49.2997 40.3077 51 38.2274 51H3.77261C1.69229 51 1.14257e-07 49.2992 1.14257e-07 47.2095V3.79252C-0.000507776 1.70128 1.69229 0 3.77261 0H30.64L30.9905 0.367512ZM17.0895 16.3339L9.2304 16.9913C8.24814 20.6123 15.7802 28.1805 15.7802 28.1805C16.1067 29.1682 15.1245 29.1682 15.1245 29.1682C7.59245 30.1559 7.59245 38.7128 7.59245 38.7128H14.7974C14.4688 31.1431 17.7432 31.1431 17.7432 31.1431C25.2757 30.8149 25.6033 41.3451 25.6033 41.3451H33.4624C33.4624 37.0677 26.9141 29.8272 26.9141 29.8272C25.9314 28.5108 26.9141 28.1821 26.9141 28.1821C33.7894 27.8518 35.4274 19.6252 35.4274 19.6252H28.8771C27.2407 26.5359 21.6737 26.5359 21.6737 26.5359C16.7609 25.8785 17.09 16.3339 17.09 16.3339H17.0895Z" fill="#2E405B"/>
</svg>
