<svg xmlns="http://www.w3.org/2000/svg" width="17" height="23" viewBox="0 0 17 23" fill="none">
  <path d="M8.60355 8.03165V1.63495H4.69445C2.92805 1.63495 1.49609 3.06691 1.49609 4.83329C1.49609 6.5997 2.92805 8.03165 4.69445 8.03165H8.60355ZM8.60355 8.03165L5.04982 8.03151C3.08715 8.03151 1.49609 9.62257 1.49609 11.5852C1.49609 13.5479 3.08715 15.1389 5.04982 15.1389H8.60355V8.03165ZM15.7121 4.83329C15.7121 3.06691 14.2803 1.63495 12.5139 1.63495H8.60477V8.03165H12.5139C14.2803 8.03165 15.7121 6.5997 15.7121 4.83329ZM15.711 11.5848C15.711 9.62217 14.12 8.03111 12.1573 8.03111C10.1947 8.03111 8.60359 9.62217 8.60359 11.5848C8.60359 13.5475 10.1947 15.1386 12.1573 15.1386C14.12 15.1386 15.711 13.5475 15.711 11.5848ZM1.49609 18.3386C1.49609 16.5721 2.92805 15.1402 4.69445 15.1402H8.60355V17.9832C8.60355 19.9459 7.01249 21.5369 5.04982 21.5369H4.69445C2.92805 21.5369 1.49609 20.1049 1.49609 18.3386Z" stroke="black" stroke-width="2" stroke-linecap="round" stroke-linejoin="round"/>
</svg>