<svg width="24" height="24" viewBox="0 0 24 24" fill="none" xmlns="http://www.w3.org/2000/svg">
<path d="M16.5 9.5C16.5 6.186 13.142 3.5 9 3.5C4.858 3.5 1.5 6.186 1.5 9.5C1.5 11.391 2.594 13.078 4.303 14.178L4 17L7.302 15.346C8.38821 15.5468 9.50142 15.5536 10.59 15.366" stroke="black" stroke-width="2" stroke-linejoin="round"/>
<path d="M6.5 8.5C6.36739 8.5 6.24021 8.44732 6.14645 8.35355C6.05268 8.25979 6 8.13261 6 8C6 7.86739 6.05268 7.74021 6.14645 7.64645C6.24021 7.55268 6.36739 7.5 6.5 7.5" stroke="black" stroke-linejoin="round"/>
<path d="M6.5 8.5C6.63261 8.5 6.75979 8.44732 6.85355 8.35355C6.94732 8.25979 7 8.13261 7 8C7 7.86739 6.94732 7.74021 6.85355 7.64645C6.75979 7.55268 6.63261 7.5 6.5 7.5" stroke="black" stroke-linejoin="round"/>
<path d="M11.5 8.5C11.3674 8.5 11.2402 8.44732 11.1464 8.35355C11.0527 8.25979 11 8.13261 11 8C11 7.86739 11.0527 7.74021 11.1464 7.64645C11.2402 7.55268 11.3674 7.5 11.5 7.5" stroke="black" stroke-linejoin="round"/>
<path d="M11.5 8.5C11.6326 8.5 11.7598 8.44732 11.8536 8.35355C11.9473 8.25979 12 8.13261 12 8C12 7.86739 11.9473 7.74021 11.8536 7.64645C11.7598 7.55268 11.6326 7.5 11.5 7.5" stroke="black" stroke-linejoin="round"/>
<path d="M14.25 13.5C14.1837 13.5 14.1201 13.4737 14.0732 13.4268C14.0263 13.3799 14 13.3163 14 13.25C14 13.1837 14.0263 13.1201 14.0732 13.0732C14.1201 13.0263 14.1837 13 14.25 13" stroke="black" stroke-linejoin="round"/>
<path d="M14.25 13.5C14.3163 13.5 14.3799 13.4737 14.4268 13.4268C14.4737 13.3799 14.5 13.3163 14.5 13.25C14.5 13.1837 14.4737 13.1201 14.4268 13.0732C14.3799 13.0263 14.3163 13 14.25 13" stroke="black" stroke-linejoin="round"/>
<path d="M18.75 13.5C18.6837 13.5 18.6201 13.4737 18.5732 13.4268C18.5263 13.3799 18.5 13.3163 18.5 13.25C18.5 13.1837 18.5263 13.1201 18.5732 13.0732C18.6201 13.0263 18.6837 13 18.75 13" stroke="black" stroke-linejoin="round"/>
<path d="M18.75 13.5C18.8163 13.5 18.8799 13.4737 18.9268 13.4268C18.9737 13.3799 19 13.3163 19 13.25C19 13.1837 18.9737 13.1201 18.9268 13.0732C18.8799 13.0263 18.8163 13 18.75 13" stroke="black" stroke-linejoin="round"/>
<path d="M10.5 14.5C10.5 17.261 13.186 19.5 16.5 19.5C16.84 19.5 17.175 19.476 17.5 19.43L21 21L20.5 18.227C21.727 17.311 22.5 15.981 22.5 14.5C22.5 11.739 19.814 9.5 16.5 9.5C13.186 9.5 10.5 11.739 10.5 14.5Z" stroke="black" stroke-width="2" stroke-linejoin="round"/>
</svg>
