<svg width="43" height="55" viewBox="0 0 43 55" fill="none" xmlns="http://www.w3.org/2000/svg">
<path d="M7.19995 2.75209C7.19995 1.89396 8.20978 1.43441 8.85681 1.99808L22.0994 13.5345V41.1106L7.88622 28.7286C7.45022 28.3488 7.19995 27.7988 7.19995 27.2206V2.75209Z" fill="#C0C0C0"/>
<path d="M37.2789 2.83798C37.2789 1.98572 36.2811 1.52407 35.6315 2.07583L22.6995 13.0608V41.5424L36.9263 29.4576C37.15 29.2675 37.2789 28.9889 37.2789 28.6954V2.83798Z" fill="#E6E6E6"/>
<path d="M0 14.7462C0 14.1939 0.447715 13.7462 1 13.7462H42C42.5523 13.7462 43 14.1939 43 14.7462V35.7563C43 36.3086 42.5523 36.7563 42 36.7563H1C0.447716 36.7563 0 36.3086 0 35.7563V14.7462Z" fill="#787878" fill-opacity="0.72"/>
<path d="M22.6996 13.5042L36.9128 25.8861C37.3488 26.2659 37.599 26.8159 37.599 27.3941V49.6652C37.599 51.3815 35.5794 52.3006 34.2853 51.1732L22.6996 41.0802V13.5042Z" fill="#C0C0C0"/>
<path d="M21.9614 13.5621L8.28576 25.2566C8.06359 25.4466 7.93567 25.7243 7.93567 26.0167V50.9686C7.93567 51.8224 8.93668 52.2835 9.58559 51.7286L21.9614 41.1457V13.5621Z" fill="#E6E6E6"/>
<path fill-rule="evenodd" clip-rule="evenodd" d="M22 52.8528L22 0.984741C22.3905 0.984741 22.6095 0.984741 23 0.984741L23 52.8528L22 52.8528Z" fill="#32415B" fill-opacity="0.57"/>
</svg>
